<svg width="91" height="227" viewBox="0 0 91 227" fill="none" xmlns="http://www.w3.org/2000/svg">
<path fill-rule="evenodd" clip-rule="evenodd" d="M114.518 4.23065C131.233 5.56349 147.889 5.17983 163.798 10.4703C180.893 16.1553 200.228 21.4304 210.56 36.1689C220.903 50.922 215.665 71.1432 218.77 88.8825C221.718 105.731 231.304 121.741 228.488 138.612C225.639 155.677 213.401 169.256 203.038 183.121C192.436 197.307 182.756 213.321 166.834 221.105C150.892 228.898 132.261 226.904 114.518 226.394C97.1231 225.894 80.0104 224.013 63.6337 218.137C46.2301 211.892 27.2183 205.76 16.0347 191.055C4.87548 176.381 5.35518 156.348 2.77059 138.106C0.341549 120.961 -1.23603 103.966 1.26873 86.8321C3.89655 68.8562 7.23283 50.4155 17.7561 35.5959C28.464 20.5163 43.687 8.00496 61.2962 2.29697C78.3954 -3.2457 96.5974 2.80168 114.518 4.23065Z" fill="#0000FF"/>
</svg>
